%TF.GenerationSoftware,KiCad,Pcbnew,(6.0.4)*%
%TF.CreationDate,2022-11-08T09:06:00-07:00*%
%TF.ProjectId,rf_backscatter_V1,72665f62-6163-46b7-9363-61747465725f,rev?*%
%TF.SameCoordinates,Original*%
%TF.FileFunction,Soldermask,Top*%
%TF.FilePolarity,Negative*%
%FSLAX46Y46*%
G04 Gerber Fmt 4.6, Leading zero omitted, Abs format (unit mm)*
G04 Created by KiCad (PCBNEW (6.0.4)) date 2022-11-08 09:06:00*
%MOMM*%
%LPD*%
G01*
G04 APERTURE LIST*
G04 Aperture macros list*
%AMRoundRect*
0 Rectangle with rounded corners*
0 $1 Rounding radius*
0 $2 $3 $4 $5 $6 $7 $8 $9 X,Y pos of 4 corners*
0 Add a 4 corners polygon primitive as box body*
4,1,4,$2,$3,$4,$5,$6,$7,$8,$9,$2,$3,0*
0 Add four circle primitives for the rounded corners*
1,1,$1+$1,$2,$3*
1,1,$1+$1,$4,$5*
1,1,$1+$1,$6,$7*
1,1,$1+$1,$8,$9*
0 Add four rect primitives between the rounded corners*
20,1,$1+$1,$2,$3,$4,$5,0*
20,1,$1+$1,$4,$5,$6,$7,0*
20,1,$1+$1,$6,$7,$8,$9,0*
20,1,$1+$1,$8,$9,$2,$3,0*%
%AMRotRect*
0 Rectangle, with rotation*
0 The origin of the aperture is its center*
0 $1 length*
0 $2 width*
0 $3 Rotation angle, in degrees counterclockwise*
0 Add horizontal line*
21,1,$1,$2,0,0,$3*%
%AMOutline5P*
0 Free polygon, 5 corners , with rotation*
0 The origin of the aperture is its center*
0 number of corners: always 5*
0 $1 to $10 corner X, Y*
0 $11 Rotation angle, in degrees counterclockwise*
0 create outline with 5 corners*
4,1,5,$1,$2,$3,$4,$5,$6,$7,$8,$9,$10,$1,$2,$11*%
%AMOutline6P*
0 Free polygon, 6 corners , with rotation*
0 The origin of the aperture is its center*
0 number of corners: always 6*
0 $1 to $12 corner X, Y*
0 $13 Rotation angle, in degrees counterclockwise*
0 create outline with 6 corners*
4,1,6,$1,$2,$3,$4,$5,$6,$7,$8,$9,$10,$11,$12,$1,$2,$13*%
%AMOutline7P*
0 Free polygon, 7 corners , with rotation*
0 The origin of the aperture is its center*
0 number of corners: always 7*
0 $1 to $14 corner X, Y*
0 $15 Rotation angle, in degrees counterclockwise*
0 create outline with 7 corners*
4,1,7,$1,$2,$3,$4,$5,$6,$7,$8,$9,$10,$11,$12,$13,$14,$1,$2,$15*%
%AMOutline8P*
0 Free polygon, 8 corners , with rotation*
0 The origin of the aperture is its center*
0 number of corners: always 8*
0 $1 to $16 corner X, Y*
0 $17 Rotation angle, in degrees counterclockwise*
0 create outline with 8 corners*
4,1,8,$1,$2,$3,$4,$5,$6,$7,$8,$9,$10,$11,$12,$13,$14,$15,$16,$1,$2,$17*%
G04 Aperture macros list end*
%ADD10C,0.150000*%
%ADD11RoundRect,0.155000X0.155000X-0.212500X0.155000X0.212500X-0.155000X0.212500X-0.155000X-0.212500X0*%
%ADD12RoundRect,0.135000X-0.185000X0.135000X-0.185000X-0.135000X0.185000X-0.135000X0.185000X0.135000X0*%
%ADD13RotRect,0.350000X0.250000X135.000000*%
%ADD14RotRect,0.650000X0.550000X135.000000*%
%ADD15R,0.800000X1.500000*%
%ADD16Outline5P,-0.400000X0.470000X-0.120000X0.750000X0.400000X0.750000X0.400000X-0.750000X-0.400000X-0.750000X0.000000*%
%ADD17RoundRect,0.155000X-0.040659X-0.259862X0.259862X0.040659X0.040659X0.259862X-0.259862X-0.040659X0*%
%ADD18C,0.180000*%
%ADD19RoundRect,0.160000X0.160000X-0.197500X0.160000X0.197500X-0.160000X0.197500X-0.160000X-0.197500X0*%
%ADD20Outline5P,-0.500000X0.250000X-0.250000X0.500000X0.500000X0.500000X0.500000X-0.500000X-0.500000X-0.500000X315.000000*%
%ADD21RotRect,1.000000X1.000000X315.000000*%
%ADD22C,0.280000*%
%ADD23RoundRect,0.160000X0.197500X0.160000X-0.197500X0.160000X-0.197500X-0.160000X0.197500X-0.160000X0*%
%ADD24RotRect,1.000000X1.000000X45.000000*%
%ADD25RoundRect,0.237500X-0.300000X-0.237500X0.300000X-0.237500X0.300000X0.237500X-0.300000X0.237500X0*%
%ADD26RoundRect,0.135000X0.185000X-0.135000X0.185000X0.135000X-0.185000X0.135000X-0.185000X-0.135000X0*%
%ADD27R,0.600000X0.550000*%
%ADD28RoundRect,0.160000X-0.197500X-0.160000X0.197500X-0.160000X0.197500X0.160000X-0.197500X0.160000X0*%
%ADD29RoundRect,0.135000X0.135000X0.185000X-0.135000X0.185000X-0.135000X-0.185000X0.135000X-0.185000X0*%
G04 APERTURE END LIST*
D10*
X122295266Y-98716266D02*
X122061933Y-98382933D01*
X121895266Y-98716266D02*
X121895266Y-98016266D01*
X122161933Y-98016266D01*
X122228600Y-98049600D01*
X122261933Y-98082933D01*
X122295266Y-98149600D01*
X122295266Y-98249600D01*
X122261933Y-98316266D01*
X122228600Y-98349600D01*
X122161933Y-98382933D01*
X121895266Y-98382933D01*
X122828600Y-98349600D02*
X122595266Y-98349600D01*
X122595266Y-98716266D02*
X122595266Y-98016266D01*
X122928600Y-98016266D01*
X123195266Y-98449600D02*
X123728600Y-98449600D01*
X124061933Y-98716266D02*
X124061933Y-98016266D01*
X124061933Y-98282933D02*
X124128600Y-98249600D01*
X124261933Y-98249600D01*
X124328600Y-98282933D01*
X124361933Y-98316266D01*
X124395266Y-98382933D01*
X124395266Y-98582933D01*
X124361933Y-98649600D01*
X124328600Y-98682933D01*
X124261933Y-98716266D01*
X124128600Y-98716266D01*
X124061933Y-98682933D01*
X124995266Y-98716266D02*
X124995266Y-98349600D01*
X124961933Y-98282933D01*
X124895266Y-98249600D01*
X124761933Y-98249600D01*
X124695266Y-98282933D01*
X124995266Y-98682933D02*
X124928600Y-98716266D01*
X124761933Y-98716266D01*
X124695266Y-98682933D01*
X124661933Y-98616266D01*
X124661933Y-98549600D01*
X124695266Y-98482933D01*
X124761933Y-98449600D01*
X124928600Y-98449600D01*
X124995266Y-98416266D01*
X125628600Y-98682933D02*
X125561933Y-98716266D01*
X125428600Y-98716266D01*
X125361933Y-98682933D01*
X125328600Y-98649600D01*
X125295266Y-98582933D01*
X125295266Y-98382933D01*
X125328600Y-98316266D01*
X125361933Y-98282933D01*
X125428600Y-98249600D01*
X125561933Y-98249600D01*
X125628600Y-98282933D01*
X125928600Y-98716266D02*
X125928600Y-98016266D01*
X125995266Y-98449600D02*
X126195266Y-98716266D01*
X126195266Y-98249600D02*
X125928600Y-98516266D01*
X126461933Y-98682933D02*
X126528600Y-98716266D01*
X126661933Y-98716266D01*
X126728600Y-98682933D01*
X126761933Y-98616266D01*
X126761933Y-98582933D01*
X126728600Y-98516266D01*
X126661933Y-98482933D01*
X126561933Y-98482933D01*
X126495266Y-98449600D01*
X126461933Y-98382933D01*
X126461933Y-98349600D01*
X126495266Y-98282933D01*
X126561933Y-98249600D01*
X126661933Y-98249600D01*
X126728600Y-98282933D01*
X127361933Y-98682933D02*
X127295266Y-98716266D01*
X127161933Y-98716266D01*
X127095266Y-98682933D01*
X127061933Y-98649600D01*
X127028600Y-98582933D01*
X127028600Y-98382933D01*
X127061933Y-98316266D01*
X127095266Y-98282933D01*
X127161933Y-98249600D01*
X127295266Y-98249600D01*
X127361933Y-98282933D01*
X127961933Y-98716266D02*
X127961933Y-98349600D01*
X127928600Y-98282933D01*
X127861933Y-98249600D01*
X127728600Y-98249600D01*
X127661933Y-98282933D01*
X127961933Y-98682933D02*
X127895266Y-98716266D01*
X127728600Y-98716266D01*
X127661933Y-98682933D01*
X127628600Y-98616266D01*
X127628600Y-98549600D01*
X127661933Y-98482933D01*
X127728600Y-98449600D01*
X127895266Y-98449600D01*
X127961933Y-98416266D01*
X128195266Y-98249600D02*
X128461933Y-98249600D01*
X128295266Y-98016266D02*
X128295266Y-98616266D01*
X128328600Y-98682933D01*
X128395266Y-98716266D01*
X128461933Y-98716266D01*
X128595266Y-98249600D02*
X128861933Y-98249600D01*
X128695266Y-98016266D02*
X128695266Y-98616266D01*
X128728600Y-98682933D01*
X128795266Y-98716266D01*
X128861933Y-98716266D01*
X129361933Y-98682933D02*
X129295266Y-98716266D01*
X129161933Y-98716266D01*
X129095266Y-98682933D01*
X129061933Y-98616266D01*
X129061933Y-98349600D01*
X129095266Y-98282933D01*
X129161933Y-98249600D01*
X129295266Y-98249600D01*
X129361933Y-98282933D01*
X129395266Y-98349600D01*
X129395266Y-98416266D01*
X129061933Y-98482933D01*
X129695266Y-98716266D02*
X129695266Y-98249600D01*
X129695266Y-98382933D02*
X129728600Y-98316266D01*
X129761933Y-98282933D01*
X129828600Y-98249600D01*
X129895266Y-98249600D01*
X130661933Y-98716266D02*
X130661933Y-98249600D01*
X130661933Y-98382933D02*
X130695266Y-98316266D01*
X130728600Y-98282933D01*
X130795266Y-98249600D01*
X130861933Y-98249600D01*
X131361933Y-98682933D02*
X131295266Y-98716266D01*
X131161933Y-98716266D01*
X131095266Y-98682933D01*
X131061933Y-98616266D01*
X131061933Y-98349600D01*
X131095266Y-98282933D01*
X131161933Y-98249600D01*
X131295266Y-98249600D01*
X131361933Y-98282933D01*
X131395266Y-98349600D01*
X131395266Y-98416266D01*
X131061933Y-98482933D01*
X131628600Y-98249600D02*
X131795266Y-98716266D01*
X131961933Y-98249600D01*
X132595266Y-98716266D02*
X132195266Y-98716266D01*
X132395266Y-98716266D02*
X132395266Y-98016266D01*
X132328600Y-98116266D01*
X132261933Y-98182933D01*
X132195266Y-98216266D01*
D11*
%TO.C,C3*%
X131597400Y-82143600D03*
X131597400Y-83278600D03*
%TD*%
D12*
%TO.C,R5*%
X128168400Y-83132200D03*
X128168400Y-84152200D03*
%TD*%
D13*
%TO.C,U2*%
X129072613Y-92484797D03*
X129426166Y-92131243D03*
X129779720Y-91777690D03*
X128754415Y-90752385D03*
X128400862Y-91105939D03*
X128047308Y-91459492D03*
D14*
X128644106Y-91887999D03*
%TD*%
D15*
%TO.C,J3*%
X138049000Y-91726500D03*
X136779000Y-91726500D03*
X135509000Y-91726500D03*
X134239000Y-91726500D03*
D16*
X132969000Y-91726500D03*
%TD*%
D11*
%TO.C,C2*%
X132909500Y-83304000D03*
X132909500Y-82169000D03*
%TD*%
D17*
%TO.C,C4*%
X126542800Y-92786200D03*
X125740234Y-93588766D03*
%TD*%
D18*
%TO.C,U1*%
X133050800Y-86334600D03*
X133050800Y-85984600D03*
X133400800Y-85984600D03*
X133400800Y-86334600D03*
%TD*%
D19*
%TO.C,R1*%
X137744200Y-84771900D03*
X137744200Y-85966900D03*
%TD*%
D20*
%TO.C,J1*%
X138407670Y-81321682D03*
D21*
X139468330Y-82382342D03*
%TD*%
D22*
%TO.C,U3*%
X124604400Y-83983900D03*
X124204400Y-83983900D03*
X123804400Y-83983900D03*
X124404400Y-83637567D03*
X124004400Y-83637567D03*
X123604400Y-83637567D03*
X124604400Y-83291233D03*
X124204400Y-83291233D03*
X123804400Y-83291233D03*
X124404400Y-82944900D03*
X124004400Y-82944900D03*
X123604400Y-82944900D03*
%TD*%
D23*
%TO.C,R3*%
X135674700Y-82296000D03*
X134479700Y-82296000D03*
%TD*%
D24*
%TO.C,J2*%
X124688600Y-94589600D03*
%TD*%
D25*
%TO.C,C1*%
X136729300Y-88138000D03*
X138454300Y-88138000D03*
%TD*%
D26*
%TO.C,R6*%
X129946400Y-84126800D03*
X129946400Y-83106800D03*
%TD*%
D27*
%TO.C,D1*%
X137337800Y-83432600D03*
X137337800Y-82632600D03*
%TD*%
D28*
%TO.C,R2*%
X135674700Y-83261200D03*
X134479700Y-83261200D03*
%TD*%
D29*
%TO.C,R4*%
X132513800Y-89433400D03*
X131493800Y-89433400D03*
%TD*%
M02*
