%TF.GenerationSoftware,KiCad,Pcbnew,(6.0.4)*%
%TF.CreationDate,2022-11-08T09:06:00-07:00*%
%TF.ProjectId,rf_backscatter_V1,72665f62-6163-46b7-9363-61747465725f,rev?*%
%TF.SameCoordinates,Original*%
%TF.FileFunction,Legend,Bot*%
%TF.FilePolarity,Positive*%
%FSLAX46Y46*%
G04 Gerber Fmt 4.6, Leading zero omitted, Abs format (unit mm)*
G04 Created by KiCad (PCBNEW (6.0.4)) date 2022-11-08 09:06:00*
%MOMM*%
%LPD*%
G01*
G04 APERTURE LIST*
%ADD10C,0.150000*%
G04 APERTURE END LIST*
D10*
X131852666Y-96962166D02*
X132186000Y-96962166D01*
X131786000Y-97162166D02*
X132019333Y-96462166D01*
X132252666Y-97162166D01*
X132786000Y-97162166D02*
X132786000Y-96462166D01*
X132786000Y-97128833D02*
X132719333Y-97162166D01*
X132586000Y-97162166D01*
X132519333Y-97128833D01*
X132486000Y-97095500D01*
X132452666Y-97028833D01*
X132452666Y-96828833D01*
X132486000Y-96762166D01*
X132519333Y-96728833D01*
X132586000Y-96695500D01*
X132719333Y-96695500D01*
X132786000Y-96728833D01*
X133119333Y-97162166D02*
X133119333Y-96695500D01*
X133119333Y-96828833D02*
X133152666Y-96762166D01*
X133186000Y-96728833D01*
X133252666Y-96695500D01*
X133319333Y-96695500D01*
X133552666Y-97162166D02*
X133552666Y-96695500D01*
X133552666Y-96462166D02*
X133519333Y-96495500D01*
X133552666Y-96528833D01*
X133586000Y-96495500D01*
X133552666Y-96462166D01*
X133552666Y-96528833D01*
X134186000Y-97162166D02*
X134186000Y-96795500D01*
X134152666Y-96728833D01*
X134086000Y-96695500D01*
X133952666Y-96695500D01*
X133886000Y-96728833D01*
X134186000Y-97128833D02*
X134119333Y-97162166D01*
X133952666Y-97162166D01*
X133886000Y-97128833D01*
X133852666Y-97062166D01*
X133852666Y-96995500D01*
X133886000Y-96928833D01*
X133952666Y-96895500D01*
X134119333Y-96895500D01*
X134186000Y-96862166D01*
X134519333Y-96695500D02*
X134519333Y-97162166D01*
X134519333Y-96762166D02*
X134552666Y-96728833D01*
X134619333Y-96695500D01*
X134719333Y-96695500D01*
X134786000Y-96728833D01*
X134819333Y-96795500D01*
X134819333Y-97162166D01*
X135652666Y-97128833D02*
X135752666Y-97162166D01*
X135919333Y-97162166D01*
X135986000Y-97128833D01*
X136019333Y-97095500D01*
X136052666Y-97028833D01*
X136052666Y-96962166D01*
X136019333Y-96895500D01*
X135986000Y-96862166D01*
X135919333Y-96828833D01*
X135786000Y-96795500D01*
X135719333Y-96762166D01*
X135686000Y-96728833D01*
X135652666Y-96662166D01*
X135652666Y-96595500D01*
X135686000Y-96528833D01*
X135719333Y-96495500D01*
X135786000Y-96462166D01*
X135952666Y-96462166D01*
X136052666Y-96495500D01*
X136652666Y-97162166D02*
X136652666Y-96795500D01*
X136619333Y-96728833D01*
X136552666Y-96695500D01*
X136419333Y-96695500D01*
X136352666Y-96728833D01*
X136652666Y-97128833D02*
X136586000Y-97162166D01*
X136419333Y-97162166D01*
X136352666Y-97128833D01*
X136319333Y-97062166D01*
X136319333Y-96995500D01*
X136352666Y-96928833D01*
X136419333Y-96895500D01*
X136586000Y-96895500D01*
X136652666Y-96862166D01*
X137086000Y-97162166D02*
X137019333Y-97128833D01*
X136986000Y-97062166D01*
X136986000Y-96462166D01*
X137652666Y-96695500D02*
X137652666Y-97162166D01*
X137352666Y-96695500D02*
X137352666Y-97062166D01*
X137386000Y-97128833D01*
X137452666Y-97162166D01*
X137552666Y-97162166D01*
X137619333Y-97128833D01*
X137652666Y-97095500D01*
X137952666Y-97128833D02*
X138019333Y-97162166D01*
X138152666Y-97162166D01*
X138219333Y-97128833D01*
X138252666Y-97062166D01*
X138252666Y-97028833D01*
X138219333Y-96962166D01*
X138152666Y-96928833D01*
X138052666Y-96928833D01*
X137986000Y-96895500D01*
X137952666Y-96828833D01*
X137952666Y-96795500D01*
X137986000Y-96728833D01*
X138052666Y-96695500D01*
X138152666Y-96695500D01*
X138219333Y-96728833D01*
X138452666Y-96695500D02*
X138719333Y-96695500D01*
X138552666Y-96462166D02*
X138552666Y-97062166D01*
X138586000Y-97128833D01*
X138652666Y-97162166D01*
X138719333Y-97162166D01*
X138952666Y-97162166D02*
X138952666Y-96695500D01*
X138952666Y-96828833D02*
X138986000Y-96762166D01*
X139019333Y-96728833D01*
X139086000Y-96695500D01*
X139152666Y-96695500D01*
X139386000Y-97162166D02*
X139386000Y-96695500D01*
X139386000Y-96462166D02*
X139352666Y-96495500D01*
X139386000Y-96528833D01*
X139419333Y-96495500D01*
X139386000Y-96462166D01*
X139386000Y-96528833D01*
X133102666Y-98289166D02*
X132702666Y-98289166D01*
X132902666Y-98289166D02*
X132902666Y-97589166D01*
X132836000Y-97689166D01*
X132769333Y-97755833D01*
X132702666Y-97789166D01*
X133769333Y-98289166D02*
X133369333Y-98289166D01*
X133569333Y-98289166D02*
X133569333Y-97589166D01*
X133502666Y-97689166D01*
X133436000Y-97755833D01*
X133369333Y-97789166D01*
X134569333Y-97555833D02*
X133969333Y-98455833D01*
X134736000Y-97589166D02*
X135202666Y-97589166D01*
X134902666Y-98289166D01*
X135969333Y-97555833D02*
X135369333Y-98455833D01*
X136169333Y-97655833D02*
X136202666Y-97622500D01*
X136269333Y-97589166D01*
X136436000Y-97589166D01*
X136502666Y-97622500D01*
X136536000Y-97655833D01*
X136569333Y-97722500D01*
X136569333Y-97789166D01*
X136536000Y-97889166D01*
X136136000Y-98289166D01*
X136569333Y-98289166D01*
X137002666Y-97589166D02*
X137069333Y-97589166D01*
X137136000Y-97622500D01*
X137169333Y-97655833D01*
X137202666Y-97722500D01*
X137236000Y-97855833D01*
X137236000Y-98022500D01*
X137202666Y-98155833D01*
X137169333Y-98222500D01*
X137136000Y-98255833D01*
X137069333Y-98289166D01*
X137002666Y-98289166D01*
X136936000Y-98255833D01*
X136902666Y-98222500D01*
X136869333Y-98155833D01*
X136836000Y-98022500D01*
X136836000Y-97855833D01*
X136869333Y-97722500D01*
X136902666Y-97655833D01*
X136936000Y-97622500D01*
X137002666Y-97589166D01*
X137502666Y-97655833D02*
X137536000Y-97622500D01*
X137602666Y-97589166D01*
X137769333Y-97589166D01*
X137836000Y-97622500D01*
X137869333Y-97655833D01*
X137902666Y-97722500D01*
X137902666Y-97789166D01*
X137869333Y-97889166D01*
X137469333Y-98289166D01*
X137902666Y-98289166D01*
X138169333Y-97655833D02*
X138202666Y-97622500D01*
X138269333Y-97589166D01*
X138436000Y-97589166D01*
X138502666Y-97622500D01*
X138536000Y-97655833D01*
X138569333Y-97722500D01*
X138569333Y-97789166D01*
X138536000Y-97889166D01*
X138136000Y-98289166D01*
X138569333Y-98289166D01*
M02*
